# xmcd CD database file
#
# Track frame offsets:
#	150
#	11318
#	24764
#	43610
#	56633
#	70036
#	84689
#	101121
#	119491
#	134550
#	150146
#	167683
#	182924
#	203079
#
# Disc length: 2870 seconds
#
# Revision: 0
# Processed by: cddbd v1.5.1PL0 Copyright (c) Steve Scherf et al.
# Submitted via: NeoAudio 9.9.9
#
DISCID=b00b340e
DTITLE=WS JOS SLIJPEN SEPT/OKT O5 - WS JOS SLIJPEN SEPT/OKT O5
DYEAR=2005
DGENRE=Country
TTITLE0=don't make me laugh
TTITLE1=shaping up
TTITLE2=back to front
TTITLE3=back horse
TTITLE4=somewhere between
TTITLE5=somewhere between (alt)
TTITLE6=torero
TTITLE7=let it go
TTITLE8=let it go (country)
TTITLE9=irish stew
TTITLE10=irish stew (country)
TTITLE11=i can 't be botherend
TTITLE12=agua duke
TTITLE13=agua duke (country)
EXTD=YEAR: 2005
EXTT0=
EXTT1=
EXTT2=
EXTT3=
EXTT4=
EXTT5=
EXTT6=
EXTT7=
EXTT8=
EXTT9=
EXTT10=
EXTT11=
EXTT12=
EXTT13=
PLAYORDER=
